<svg width="19" height="18" viewBox="0 0 19 18" fill="none" xmlns="http://www.w3.org/2000/svg">
<path fill-rule="evenodd" clip-rule="evenodd" d="M1.45491 2.06107C0.5 3.3754 0.5 5.25027 0.5 9C0.5 12.7497 0.5 14.6246 1.45491 15.9389C1.76331 16.3634 2.1366 16.7367 2.56107 17.0451C3.8754 18 5.75027 18 9.5 18C13.2497 18 15.1246 18 16.4389 17.0451C16.8634 16.7367 17.2367 16.3634 17.5451 15.9389C18.5 14.6246 18.5 12.7497 18.5 9C18.5 5.25027 18.5 3.3754 17.5451 2.06107C17.2367 1.6366 16.8634 1.26331 16.4389 0.954915C15.1246 0 13.2497 0 9.5 0C5.75027 0 3.8754 0 2.56107 0.954915C2.1366 1.26331 1.76331 1.6366 1.45491 2.06107ZM15.0588 6.50027C15.3351 6.19167 15.3089 5.71752 15.0003 5.44123C14.6917 5.16493 14.2175 5.19113 13.9412 5.49973L10.5721 9.26291C9.88935 10.0254 9.4296 10.5363 9.03652 10.8667C8.66207 11.1814 8.44213 11.25 8.25 11.25C8.05787 11.25 7.83794 11.1814 7.46348 10.8667C7.0704 10.5363 6.61064 10.0254 5.92794 9.26291L5.05877 8.29209C4.78248 7.98349 4.30833 7.9573 3.99973 8.23359C3.69113 8.50988 3.66493 8.98403 3.94123 9.29263L4.84753 10.3049C5.48337 11.0152 6.01374 11.6076 6.49835 12.0149C7.01099 12.4458 7.56393 12.75 8.25 12.75C8.93607 12.75 9.48901 12.4458 10.0016 12.0149C10.4863 11.6076 11.0166 11.0152 11.6525 10.3049L15.0588 6.50027Z" fill="white"/>
</svg>
